<svg width="58" height="58" viewBox="0 0 58 58" fill="none" xmlns="http://www.w3.org/2000/svg">
<path d="M22.4285 35.0575C22.2687 35.1974 22.1289 35.3172 21.999 35.4371C20.9603 36.3959 19.9315 37.3548 18.8828 38.3136C17.874 39.2325 16.6754 39.0527 16.0062 37.8742C14.3782 35.0176 14.7477 31.4019 16.9551 28.9748C18.0837 27.7263 19.3922 26.7175 21.0801 26.298C21.2699 19.0068 24.3063 13.0439 29.4701 8C34.6239 13.0439 37.6702 18.9968 37.86 26.298C39.2683 26.6177 40.387 27.4367 41.4257 28.3855C44.0825 30.8126 44.7118 34.7879 42.9139 37.9041C42.2148 39.1327 41.1161 39.3024 40.0774 38.3436C38.9088 37.2649 37.7402 36.1762 36.5316 35.0575C36.4517 35.2473 36.3918 35.3971 36.3418 35.547C35.6327 37.6145 34.6339 39.5322 33.4753 41.3899C32.866 42.3688 32.037 42.8582 30.9283 42.998C29.56 43.1678 28.2116 43.0979 26.9131 42.5885C26.2739 42.3388 25.7845 41.9293 25.4149 41.34C24.2763 39.5022 23.3374 37.5645 22.5883 35.527C22.5484 35.3772 22.4984 35.2373 22.4285 35.0575ZM25.1153 15.4511C25.0154 15.6308 24.9255 15.7907 24.8456 15.9505C22.1688 21.2641 21.5096 26.8074 22.9279 32.5905C23.0178 32.97 23.1976 33.1998 23.5172 33.3796C27.063 35.3672 30.6786 35.527 34.4141 33.9289C35.5528 33.4395 36.2619 32.7703 36.242 31.4818C36.242 31.4319 36.2619 31.382 36.2719 31.332C37.3007 25.9784 36.5616 20.8646 34.1245 16.0004C34.0346 15.8106 33.9247 15.6308 33.8249 15.461C30.8984 16.9193 28.0118 16.8993 25.1153 15.4511ZM23.5372 34.688C23.5971 34.9077 23.6371 35.0675 23.687 35.2174C24.3762 37.185 25.2551 39.0527 26.4137 40.7907C26.6335 41.1103 26.9831 41.4099 27.3426 41.5597C28.6411 42.1091 29.9895 42.159 31.3378 41.7995C31.7074 41.6996 32.1169 41.4399 32.3267 41.1303C33.6051 39.2625 34.574 37.2249 35.3031 35.0775C35.343 34.9676 35.353 34.8478 35.383 34.698C31.4177 36.6356 27.5024 36.6257 23.5372 34.688ZM21.0202 27.4766C20.8704 27.5366 20.7106 27.5865 20.5408 27.6564C19.4022 28.1458 18.4833 28.9349 17.6842 29.8638C15.8964 31.9413 15.6267 35.0376 17.005 37.3548C17.3147 37.8642 17.6642 37.9341 18.0837 37.5446C19.3322 36.4059 20.5807 35.2573 21.8193 34.0987C21.9391 33.9888 22.009 33.7291 21.9791 33.5593C21.8692 32.9601 21.6694 32.3708 21.5795 31.7715C21.3698 30.3532 21.21 28.9349 21.0202 27.4766ZM37.9998 27.5565C37.6702 29.5342 37.3606 31.5018 37.001 33.4495C36.9311 33.849 36.9911 34.0587 37.2807 34.3184C38.4393 35.3372 39.5779 36.3859 40.7166 37.4147C41.3358 37.974 41.6455 37.9241 42.035 37.165C44.1025 33.0899 41.6854 29.0048 38.0198 27.5665C37.9699 27.5466 37.9199 27.5466 37.9998 27.5565ZM29.3902 9.47823C28.1017 11.1562 26.8532 12.7543 25.6147 14.3724C27.5923 15.7407 31.3378 15.7407 33.2455 14.4423C32.1968 12.6844 30.9583 11.0763 29.3902 9.47823Z" fill="#9696B2"/>
<path d="M30.0398 47.692C30.0398 48.2513 30.0398 48.8206 30.0398 49.3799C30.0398 49.7495 29.88 50.0092 29.4905 49.9992C29.1209 49.9992 28.9212 49.7595 28.9212 49.3899C28.9212 48.2113 28.9112 47.0327 28.9212 45.8542C28.9212 45.4846 29.1309 45.2549 29.5105 45.2549C29.9 45.2549 30.0398 45.5246 30.0398 45.8941C30.0398 46.5034 30.0398 47.1027 30.0398 47.692Z" fill="#9696B2"/>
<path d="M23.717 45.5264C23.717 45.1069 23.717 44.6973 23.717 44.2779C23.717 43.9482 23.8669 43.7285 24.2065 43.7085C24.556 43.6886 24.8157 43.8683 24.8257 44.2179C24.8557 45.0969 24.8557 45.9758 24.8257 46.8548C24.8157 47.2043 24.566 47.3841 24.2164 47.3741C23.8669 47.3641 23.717 47.1444 23.717 46.8148C23.717 46.3853 23.717 45.9558 23.717 45.5264Z" fill="#9696B2"/>
<path d="M34.1641 45.5053C34.1641 45.0858 34.1641 44.6763 34.1641 44.2568C34.1641 43.9272 34.3339 43.7074 34.6735 43.7074C35.0131 43.6975 35.2628 43.8673 35.2728 44.2268C35.2828 45.1058 35.2828 45.9847 35.2728 46.8637C35.2628 47.2033 35.0331 47.3631 34.7135 47.3631C34.3739 47.3631 34.1841 47.1733 34.1741 46.8437C34.1541 46.4042 34.1641 45.9548 34.1641 45.5053Z" fill="#9696B2"/>
<path d="M29.4909 21.1983C31.6183 21.2083 33.3263 22.9162 33.3363 25.0337C33.3363 27.1511 31.5884 28.909 29.4609 28.899C27.3535 28.8891 25.6355 27.1611 25.6255 25.0537C25.6155 22.9062 27.3435 21.1883 29.4909 21.1983ZM29.5109 22.307C27.9827 22.297 26.7742 23.4756 26.7542 24.9937C26.7342 26.5219 27.9527 27.7804 29.4709 27.7804C30.9591 27.7904 32.1976 26.5619 32.2176 25.0537C32.2276 23.5555 31.0091 22.3169 29.5109 22.307Z" fill="#9696B2"/>
<rect x="1" y="1" width="56" height="56" rx="28" stroke="#414376"/>
</svg>
