<svg width="86" height="87" viewBox="0 0 86 87" fill="none" xmlns="http://www.w3.org/2000/svg">
<g clip-path="url(#clip0_4960_30577)">
<path d="M39.8233 68.3498C39.6478 68.1939 39.3945 68.1549 39.1801 68.2523C38.9657 68.3498 38.8293 68.5642 38.8293 68.7981V72.9494H21.6392V74.1383H39.4335C39.7648 74.1383 40.0182 73.8654 40.0182 73.5536V70.1234L48.009 77.1203L40.0182 84.1171V80.6869C40.0182 80.3556 39.7453 80.1022 39.4335 80.1022H21.6392V81.2911H38.8293V85.4425C38.8293 85.6763 38.9657 85.8907 39.1801 85.9882C39.258 86.0272 39.336 86.0466 39.4335 86.0466C39.5699 86.0466 39.7063 85.9882 39.8233 85.8907L49.3148 77.588C49.4513 77.4711 49.5097 77.3152 49.5097 77.1398C49.5097 76.9643 49.4318 76.8084 49.3148 76.6915L39.8233 68.3498Z" fill="#FF9D43"/>
<path d="M54.8499 70.5718H46.5472V71.7607H54.8499V70.5718Z" fill="#6C6D94"/>
<path d="M38.8292 59.3066C38.8292 59.0727 38.6927 58.8583 38.4783 58.7609C38.2639 58.6634 38.0106 58.7024 37.8352 58.8583L28.3436 67.161C28.2072 67.278 28.1487 67.4339 28.1487 67.6093C28.1487 67.7847 28.2266 67.9406 28.3436 68.0576L31.9102 71.176L32.6898 70.2794L29.6494 67.6093L37.6403 60.6124V64.0427C37.6403 64.374 37.9131 64.6274 38.225 64.6274H54.8304V63.4385H38.8097V59.3066H38.8292Z" fill="#6C6D94"/>
<path d="M13.005 24.2053L13.6872 24.6535C15.4803 25.8619 16.942 27.5185 17.9165 29.448L18.7351 31.0852C18.8325 31.2801 19.0469 31.4165 19.2613 31.4165C19.4952 31.4165 19.6901 31.2801 19.7875 31.0852L20.6061 29.448C21.5806 27.5185 23.0423 25.8619 24.8354 24.6535L25.5176 24.2053C25.6735 24.0883 25.7904 23.9129 25.7904 23.718C25.7904 23.5231 25.693 23.3282 25.5176 23.2308L24.8354 22.7825C23.0423 21.5741 21.5806 19.9175 20.6061 17.988L19.7875 16.3508C19.6901 16.1364 19.4952 16 19.2613 16C19.0274 16 18.8325 16.1364 18.7351 16.3313L17.9165 17.9685C16.942 19.898 15.4803 21.5546 13.6872 22.763L13.005 23.2113C12.8491 23.3282 12.7322 23.5036 12.7322 23.6985C12.7322 23.9129 12.8491 24.1078 13.005 24.2053ZM18.969 18.5142L19.2613 17.9295L19.5536 18.5142C20.6061 20.6191 22.1848 22.4122 24.1143 23.718C22.1653 25.0238 20.5866 26.8364 19.5536 28.9218L19.2613 29.5065L18.969 28.9218C17.9165 26.8169 16.3378 25.0238 14.4083 23.718C16.3378 22.4122 17.9165 20.5996 18.969 18.5142Z" fill="#6C6D94"/>
<path d="M12.7711 45.2544C12.8491 45.4883 13.083 45.6637 13.3363 45.6637C13.5897 45.6637 13.8236 45.5078 13.9015 45.2544C14.6227 43.091 16.0649 41.181 17.9749 39.9142L18.4037 39.6218C18.5596 39.5049 18.6766 39.3295 18.6766 39.1346C18.6766 38.9397 18.5791 38.7448 18.4037 38.6473L17.9749 38.355C16.0649 37.0882 14.6227 35.1976 13.9015 33.0148C13.8236 32.7809 13.5897 32.6055 13.3363 32.6055C13.083 32.6055 12.8491 32.7614 12.7711 33.0148C12.05 35.1781 10.6077 37.0882 8.69773 38.355L8.26895 38.6473C8.11303 38.7643 7.99609 38.9397 7.99609 39.1346C7.99609 39.3295 8.09354 39.5244 8.26895 39.6218L8.69773 39.9142C10.6077 41.2005 12.05 43.091 12.7711 45.2544ZM13.3363 34.7689C14.1744 36.5035 15.4412 38.0042 17.0199 39.1346C15.4412 40.265 14.1744 41.7657 13.3363 43.5003C12.4983 41.7657 11.2314 40.265 9.65274 39.1346C11.2119 38.0237 12.4983 36.5035 13.3363 34.7689Z" fill="#6C6D94"/>
<path d="M74.4178 48.5481V41.5122V37.9456V30.8317C74.4178 30.6563 74.3399 30.4809 74.2035 30.3835C74.067 30.2665 73.8916 30.2276 73.7162 30.2665L64.9263 31.9232V30.2276C67.5964 29.9352 69.6623 27.6744 69.6623 24.9263C69.6623 21.7689 68.1616 18.748 65.6279 16.8575L64.6729 16.1363C64.517 16.0194 64.3026 15.9804 64.1272 16.0584C63.9323 16.1169 63.7958 16.2728 63.7569 16.4677L62.6459 20.8919L61.652 21.2232C60.0538 21.7494 59.0013 23.2307 59.0013 24.9068C59.0013 27.6549 61.0867 29.9157 63.7374 30.2081V32.1181L54.733 33.8137C54.4602 33.8722 54.2458 34.106 54.2458 34.3984V48.5481C53.2518 49.2497 52.4527 50.0488 51.868 50.9064V49.8149C51.868 47.5346 49.997 45.6636 47.7167 45.6636C45.4363 45.6636 43.5653 47.5346 43.5653 49.8149V53.3816H44.7542V49.8149C44.7542 48.1778 46.0795 46.8525 47.7167 46.8525C49.3538 46.8525 50.6791 48.1778 50.6791 49.8149V54.551C50.6791 56.9872 52.1409 59.248 54.772 60.9242C56.6041 62.0936 58.8844 62.8927 61.3596 63.2435V68.6032C58.4946 69.4218 56.6236 71.3513 56.6236 73.5342C56.6236 76.4771 60.0733 78.8744 64.3416 78.8744C68.5904 78.8744 72.0596 76.4771 72.0596 73.5342C72.0596 71.3513 70.169 69.4218 67.3235 68.6032V63.2435C69.7987 62.8927 72.0596 62.0936 73.9111 60.9242C76.5617 59.248 78.004 56.9872 78.004 54.551C77.9845 52.3096 76.7177 50.1852 74.4178 48.5481ZM60.1902 24.9068C60.1902 23.7374 60.9308 22.7239 62.0417 22.3536L63.3476 21.9248C63.5425 21.8664 63.6789 21.7105 63.7374 21.5156L64.7119 17.6371L64.9458 17.8125C67.1676 19.4886 68.5124 22.1392 68.5124 24.9263C68.5124 27.0117 66.9727 28.7463 64.9458 29.0387V26.1152H63.7374V29.0387C61.7299 28.7268 60.1902 26.9922 60.1902 24.9068ZM55.4347 39.7386H57.2083C58.1827 39.7386 58.9818 40.5377 58.9818 41.5122V43.89C58.9818 45.5271 60.3071 46.8525 61.9443 46.8525C63.5815 46.8525 64.9068 45.5271 64.9068 43.89V40.3233C64.9068 39.3488 65.7059 38.5497 66.6804 38.5497C67.6549 38.5497 68.4539 39.3488 68.4539 40.3233V41.5122C68.4539 43.1494 69.7792 44.4747 71.4164 44.4747C72.0791 44.4747 72.7027 44.2408 73.19 43.8705V54.2196C70.5004 55.8373 67.4405 56.6754 64.3026 56.6754C61.1647 56.6754 58.0853 55.8178 55.4152 54.2196V39.7386H55.4347ZM63.7374 33.3265V35.5678H64.9263V33.1121L73.229 31.5529V37.9456V41.5122C73.229 42.4867 72.4299 43.2858 71.4554 43.2858C70.4809 43.2858 69.6818 42.4867 69.6818 41.5122V40.3233C69.6818 38.6862 68.3565 37.3609 66.7193 37.3609C65.0822 37.3609 63.7569 38.6862 63.7569 40.3233V43.89C63.7569 44.8645 62.9578 45.6636 61.9833 45.6636C61.0088 45.6636 60.2097 44.8645 60.2097 43.89V41.5122C60.2097 39.8751 58.8844 38.5497 57.2472 38.5497H55.4736V34.8856L63.7374 33.3265ZM70.8707 73.5342C70.8707 75.8145 67.9472 77.6855 64.3416 77.6855C60.7359 77.6855 57.8124 75.8145 57.8124 73.5342C57.8124 71.975 59.2157 70.5522 61.3791 69.8506V72.3648C61.3791 72.5986 61.5155 72.7935 61.7104 72.891C62.529 73.3003 63.445 73.5147 64.3416 73.5147C65.2381 73.5147 66.1541 73.3003 66.9727 72.891C67.1676 72.7935 67.304 72.5792 67.304 72.3648V69.8506C69.4674 70.5522 70.8707 71.975 70.8707 73.5342ZM66.1151 71.975C64.9847 72.4427 63.6984 72.4427 62.5485 71.975V63.3799C63.1332 63.4384 63.7374 63.4579 64.3221 63.4579C64.9263 63.4579 65.511 63.4384 66.0957 63.3799V71.975H66.1151ZM64.3416 62.269C57.4811 62.269 51.8875 58.8193 51.8875 54.551C51.8875 52.9333 52.7256 51.3546 54.2653 50.0488V54.551C54.2653 54.7459 54.3627 54.9408 54.5381 55.0577C57.4811 56.8898 60.8724 57.8643 64.3416 57.8643C67.8108 57.8643 71.202 56.8898 74.145 55.0577C74.3204 54.9408 74.4178 54.7654 74.4178 54.551V50.0488C75.9576 51.3546 76.7956 52.9333 76.7956 54.551C76.7956 58.7998 71.202 62.269 64.3416 62.269Z" fill="#6C6D94"/>
<path d="M29.1817 63.4774L29.7664 62.4444L26.2777 60.4565L49.0029 34.6323C49.1198 34.4959 49.1588 34.34 49.1393 34.1646L46.9175 16.5262C46.898 16.3313 46.7811 16.1754 46.6251 16.0779C46.4692 15.9805 46.2743 15.9805 46.0989 16.0584L29.7664 23.1333C29.6104 23.1917 29.4935 23.3282 29.435 23.5036L18.8325 56.2077L15.3438 54.2197L14.7591 55.2527L18.3648 57.2991L9.26297 73.2808C8.87317 73.963 8.77572 74.7621 8.97062 75.5417C9.18501 76.3018 9.67226 76.945 10.3544 77.3347L12.4203 78.5041C12.8686 78.7575 13.3753 78.8939 13.8821 78.8939C14.1354 78.8939 14.4083 78.855 14.6617 78.7965C15.4218 78.5821 16.0649 78.0949 16.4547 77.4127L25.5565 61.431L29.1817 63.4774ZM30.4875 24.1078L45.8455 17.4422L47.9505 34.0476L25.2252 59.8523L23.0618 58.6244L42.7466 24.1078L41.7137 23.5231L22.0289 58.0397L19.885 56.8119L30.4875 24.1078ZM15.4413 76.8085C14.954 77.6661 13.8626 77.9584 13.005 77.4712L10.9391 76.3018C10.0815 75.8145 9.7892 74.7231 10.2764 73.8655L19.3782 57.8838L24.5431 60.8268L15.4413 76.8085Z" fill="#FF9D43"/>
</g>
<rect x="0.5" y="1" width="85" height="85" rx="42.5" stroke="#6C6D94"/>
<defs>
<clipPath id="clip0_4960_30577">
<rect x="1" y="1.5" width="84" height="84" rx="42" fill="white"/>
</clipPath>
</defs>
</svg>
