<svg width="86" height="87" viewBox="0 0 86 87" fill="none" xmlns="http://www.w3.org/2000/svg">
<g clip-path="url(#clip0_4946_26606)">
<path d="M38.8889 -1H11.4202C9.31498 -1 7.61072 0.704259 7.61072 2.80952V39.426C7.61072 41.5313 9.31498 43.2355 11.4202 43.2355H38.8638C40.9691 43.2355 42.6733 41.5313 42.6733 39.426V2.80952C42.6984 0.704259 40.9941 -1 38.8889 -1ZM41.1696 39.426C41.1696 40.6792 40.142 41.7067 38.8889 41.7067H11.4202C10.1671 41.7067 9.13954 40.6792 9.13954 39.426V2.80952C9.13954 1.55639 10.1671 0.52882 11.4202 0.52882H38.8638C40.1169 0.52882 41.1445 1.55639 41.1445 2.80952V39.426H41.1696Z" fill="#6C6D94"/>
<path d="M75.4803 -1H48.0367C45.9314 -1 44.2272 0.704259 44.2272 2.80952V39.426C44.2272 41.5313 45.9314 43.2355 48.0367 43.2355H75.4803C77.5855 43.2355 79.2898 41.5313 79.2898 39.426V2.80952C79.2898 0.704259 77.5855 -1 75.4803 -1ZM77.786 39.426C77.786 40.6792 76.7585 41.7067 75.5053 41.7067H48.0367C46.7836 41.7067 45.756 40.6792 45.756 39.426V2.80952C45.756 1.55639 46.7836 0.52882 48.0367 0.52882H75.4803C76.7334 0.52882 77.761 1.55639 77.761 2.80952V39.426H77.786Z" fill="#6C6D94"/>
<path d="M38.8889 44.7644H11.4202C9.31498 44.7644 7.61072 46.4687 7.61072 48.5739V85.1904C7.61072 87.2957 9.31498 88.9999 11.4202 88.9999H38.8638C40.9691 88.9999 42.6733 87.2957 42.6733 85.1904V48.5739C42.6984 46.4687 40.9941 44.7644 38.8889 44.7644ZM41.1696 85.1904C41.1696 86.4436 40.142 87.4711 38.8889 87.4711H11.4202C10.1671 87.4711 9.13954 86.4436 9.13954 85.1904V48.5739C9.13954 47.3208 10.1671 46.2932 11.4202 46.2932H38.8638C40.1169 46.2932 41.1445 47.3208 41.1445 48.5739V85.1904H41.1696Z" fill="#6C6D94"/>
<path d="M75.4803 44.7644H48.0367C45.9314 44.7644 44.2272 46.4687 44.2272 48.5739V85.1904C44.2272 87.2957 45.9314 88.9999 48.0367 88.9999H75.4803C77.5855 88.9999 79.2898 87.2957 79.2898 85.1904V48.5739C79.2898 46.4687 77.5855 44.7644 75.4803 44.7644ZM77.786 85.1904C77.786 86.4436 76.7585 87.4711 75.5053 87.4711H48.0367C46.7836 87.4711 45.756 86.4436 45.756 85.1904V48.5739C45.756 47.3208 46.7836 46.2932 48.0367 46.2932H75.4803C76.7334 46.2932 77.761 47.3208 77.761 48.5739V85.1904H77.786Z" fill="#6C6D94"/>
<path d="M31.8714 14.5639C31.721 14.3634 31.4955 14.2632 31.2699 14.2632H19.0394C18.7887 14.2632 18.5632 14.3885 18.4378 14.5639L13.8765 20.6542C13.6759 20.9298 13.6759 21.3058 13.8765 21.5815L24.5531 35.3158C24.7035 35.4912 24.9291 35.6165 25.1546 35.6165C25.3802 35.6165 25.6058 35.5163 25.7561 35.3158L36.4328 21.5815C36.6333 21.3058 36.6584 20.9298 36.4328 20.6542L31.8714 14.5639ZM34.3025 20.3534H30.117L26.6835 15.7669H30.8689L34.3025 20.3534ZM20.0168 21.8822L22.9992 30.8546L16.0318 21.8822H20.0168ZM28.6634 21.8822L25.1546 32.4336L21.6459 21.8822H28.6634ZM22.097 20.3534L25.1546 16.2933L28.2123 20.3534H22.097ZM30.2674 21.8822H34.2524L27.2599 30.8546L30.2674 21.8822ZM19.4404 15.7669H23.6258L20.1922 20.3534H16.0068L19.4404 15.7669Z" fill="#FF9D43"/>
<path d="M37.36 5.09021H28.2122V6.61903H37.36V5.09021Z" fill="#6C6D94"/>
<path d="M73.9516 5.09021H64.8037V6.61903H73.9516V5.09021Z" fill="#6C6D94"/>
<path d="M72.4477 14.2632H67.8612C67.6357 14.2632 67.4352 14.3634 67.2848 14.5138L57.1344 26.0927L54.6532 23.6115L53.5755 24.6892L57.6106 28.7243L50.543 35.8421L51.6207 36.9198L58.7134 29.8271L62.7485 33.8622L63.8262 32.7845L61.345 30.3033L72.9239 20.1529C73.0993 20.0025 73.1745 19.802 73.1745 19.5765V15.0151C73.1996 14.589 72.8487 14.2632 72.4477 14.2632ZM71.6708 19.2506L60.2673 29.2256L58.2372 27.1955L68.2121 15.792H71.6708V19.2506Z" fill="#FF9D43"/>
<path d="M25.1546 58.4987C18.8389 58.4987 13.7261 63.6365 13.7261 69.9272C13.7261 76.243 18.8639 81.3558 25.1546 81.3558C31.4454 81.3558 36.5832 76.2179 36.5832 69.9272C36.5832 63.6114 31.4704 58.4987 25.1546 58.4987ZM25.1546 79.852C19.691 79.852 15.2298 75.4159 15.2298 69.9272C15.2298 64.4385 19.6659 60.0024 25.1546 60.0024C30.6433 60.0024 35.0794 64.4385 35.0794 69.9272C35.0794 75.4159 30.6183 79.852 25.1546 79.852Z" fill="#6C6D94"/>
<path d="M30.117 67.2956L25.5306 64.6891C25.305 64.5638 25.0042 64.5638 24.7787 64.6891L20.1922 67.2956C19.9667 67.4209 19.8163 67.6715 19.8163 67.9472V71.882C19.8163 72.1577 19.9667 72.4084 20.1922 72.5337L24.7787 75.1402C24.904 75.2154 25.0293 75.2404 25.1546 75.2404C25.2799 75.2404 25.4053 75.2154 25.5306 75.1402L30.117 72.5337C30.3426 72.4084 30.493 72.1577 30.493 71.882V67.9472C30.493 67.6966 30.3426 67.446 30.117 67.2956ZM28.9641 71.456L25.1546 73.6364L21.3451 71.456V68.4234L25.1546 66.243L28.9641 68.4234V71.456Z" fill="#FF9D43"/>
<path d="M37.36 50.8546H28.2122V52.3834H37.36V50.8546Z" fill="#6C6D94"/>
<path d="M73.9516 50.8546H64.8037V52.3834H73.9516V50.8546Z" fill="#6C6D94"/>
<path d="M68.6131 72.9348C68.1871 72.5589 67.6858 72.208 67.0843 71.9073V65.3659C67.0843 64.9399 66.7334 64.614 66.3324 64.614H63.6006L63.6507 64.5639C65.7309 62.4837 65.7309 59.1003 63.6507 57.0201L62.3224 55.6918C62.0217 55.391 61.5455 55.391 61.2447 55.6918L59.9164 57.0201C57.8362 59.1003 57.8362 62.4837 59.9164 64.5639L59.9665 64.614H57.2347C56.8086 64.614 56.4828 64.9649 56.4828 65.3659V71.9073C54.5279 72.9098 53.4252 74.4135 53.4252 76.0426C53.4252 79.0251 57.1094 81.3809 61.8212 81.3809C66.5329 81.3809 70.2171 79.0251 70.2171 76.0426V72.985C70.2171 70.8797 71.9214 69.1754 74.0267 69.1754V67.6466C71.0442 67.6466 68.6632 70.0025 68.6131 72.9348ZM60.969 58.0727L61.771 57.2707L62.573 58.0727C64.0517 59.5514 64.0517 61.9825 62.573 63.4612L61.771 64.2632L60.969 63.4612C59.4653 61.9825 59.4653 59.5765 60.969 58.0727ZM57.9364 66.1178H65.5555V72.5589C63.1996 73.9624 60.2923 73.9624 57.9364 72.5589V66.1178ZM61.771 79.8521C58.0618 79.8521 54.9039 78.0977 54.9039 76.0426C54.9039 75.1404 55.5555 74.2381 56.6582 73.5363C56.6833 73.5614 56.7334 73.6115 56.7836 73.6366C58.3124 74.6391 60.0417 75.1654 61.771 75.1654C63.5003 75.1654 65.2547 74.6642 66.7585 73.6366C66.8086 73.6115 66.8337 73.5865 66.8838 73.5363C67.9866 74.2381 68.6382 75.1404 68.6382 76.0426C68.6131 78.0977 65.4803 79.8521 61.771 79.8521Z" fill="#FF9D43"/>
</g>
<rect x="0.5" y="1" width="85" height="85" rx="42.5" stroke="#6C6D94"/>
<defs>
<clipPath id="clip0_4946_26606">
<rect x="1" y="1.5" width="84" height="84" rx="42" fill="white"/>
</clipPath>
</defs>
</svg>
