<svg width="50" height="50" viewBox="0 0 50 50" fill="none" xmlns="http://www.w3.org/2000/svg">
<path d="M25.0001 12.181C17.9063 12.181 12.1813 17.906 12.1813 24.9997C12.1813 32.0935 17.9063 37.8185 25.0001 37.8185C32.0938 37.8185 37.8188 32.0935 37.8188 24.9997C37.8188 17.906 32.0938 12.181 25.0001 12.181ZM25.0001 33.331C20.4126 33.331 16.6688 29.5872 16.6688 24.9997C16.6688 20.4122 20.4126 16.6685 25.0001 16.6685C29.5876 16.6685 33.3313 20.4122 33.3313 24.9997C33.3313 29.5872 29.5876 33.331 25.0001 33.331ZM38.3438 8.66846C36.6876 8.66846 35.3501 10.006 35.3501 11.6622C35.3501 13.3185 36.6876 14.656 38.3438 14.656C40.0001 14.656 41.3376 13.3247 41.3376 11.6622C41.338 11.2689 41.2609 10.8794 41.1107 10.516C40.9604 10.1525 40.7399 9.8223 40.4618 9.54421C40.1837 9.26612 39.8535 9.04562 39.49 8.89534C39.1266 8.74507 38.7371 8.66797 38.3438 8.66846ZM49.9876 24.9997C49.9876 21.5497 50.0188 18.131 49.8251 14.6872C49.6313 10.6872 48.7188 7.13721 45.7938 4.21221C42.8626 1.28096 39.3188 0.374711 35.3188 0.18096C31.8688 -0.0127895 28.4501 0.0184606 25.0063 0.0184606C21.5563 0.0184606 18.1376 -0.0127895 14.6938 0.18096C10.6938 0.374711 7.1438 1.28721 4.2188 4.21221C1.28755 7.14346 0.381302 10.6872 0.187552 14.6872C-0.00619771 18.1372 0.0250524 21.556 0.0250524 24.9997C0.0250524 28.4435 -0.00619771 31.8685 0.187552 35.3122C0.381302 39.3122 1.2938 42.8622 4.2188 45.7872C7.15005 48.7185 10.6938 49.6247 14.6938 49.8185C18.1438 50.0122 21.5625 49.981 25.0063 49.981C28.4563 49.981 31.8751 50.0122 35.3188 49.8185C39.3188 49.6247 42.8688 48.7122 45.7938 45.7872C48.7251 42.856 49.6313 39.3122 49.8251 35.3122C50.0251 31.8685 49.9876 28.4497 49.9876 24.9997ZM44.4876 39.7372C44.0313 40.8747 43.4813 41.7247 42.6001 42.5997C41.7188 43.481 40.8751 44.031 39.7376 44.4872C36.4501 45.7935 28.6438 45.4997 25.0001 45.4997C21.3563 45.4997 13.5438 45.7935 10.2563 44.4935C9.1188 44.0372 8.2688 43.4872 7.3938 42.606C6.51255 41.7247 5.96255 40.881 5.5063 39.7435C4.2063 36.4497 4.50005 28.6435 4.50005 24.9997C4.50005 21.356 4.2063 13.5435 5.5063 10.256C5.96255 9.11846 6.51255 8.26846 7.3938 7.39346C8.27505 6.51846 9.1188 5.96221 10.2563 5.50596C13.5438 4.20596 21.3563 4.49971 25.0001 4.49971C28.6438 4.49971 36.4563 4.20596 39.7438 5.50596C40.8813 5.96221 41.7313 6.51221 42.6063 7.39346C43.4876 8.27471 44.0376 9.11846 44.4938 10.256C45.7938 13.5435 45.5001 21.356 45.5001 24.9997C45.5001 28.6435 45.7938 36.4497 44.4876 39.7372Z" fill="#9696B2"/>
</svg>
