<svg width="50" height="41" viewBox="0 0 50 41" fill="none" xmlns="http://www.w3.org/2000/svg">
<path d="M45.3225 0.527481C45.3225 0.527481 49.8554 -1.24002 49.4776 3.05249C49.3517 4.82001 48.2185 11.0063 47.3371 17.6976L44.3152 37.5189C44.3152 37.5189 44.0634 40.4226 41.797 40.9276C39.5305 41.4326 36.1309 39.1601 35.5013 38.6551C34.9976 38.2764 26.0579 32.5951 22.91 29.8176C22.0286 29.0601 21.0213 27.545 23.0359 25.7775L36.2568 13.1526C37.7678 11.6375 39.2787 8.10254 32.983 12.3951L15.3553 24.3889C15.3553 24.3889 13.3407 25.6513 9.56337 24.5151L1.37899 21.9901C1.37899 21.9901 -1.64292 20.0963 3.51951 18.2025C16.1108 12.2687 31.5981 6.20869 45.3225 0.527481Z" fill="#9696B2"/>
</svg>
