<svg width="46" height="38" viewBox="0 0 46 38" fill="none" xmlns="http://www.w3.org/2000/svg">
<path d="M45.75 4.90705C44.0765 5.62893 42.2554 6.14846 40.3797 6.3508C42.3272 5.19381 43.7855 3.36596 44.4812 1.21018C42.6538 2.29731 40.6518 3.05962 38.564 3.4633C37.6915 2.53048 36.6361 1.78735 35.4638 1.28022C34.2915 0.773089 33.0273 0.512826 31.75 0.515648C26.582 0.515648 22.4258 4.70471 22.4258 9.84534C22.4258 10.5672 22.5133 11.2891 22.6554 11.9836C14.9172 11.5789 8.0156 7.88205 3.42732 2.2219C2.59129 3.64987 2.15318 5.27579 2.15857 6.93049C2.15857 10.168 3.80466 13.0227 6.31482 14.7016C4.83555 14.6433 3.39091 14.2367 2.09841 13.5149V13.6297C2.09841 18.1633 5.3031 21.9203 9.57419 22.7844C8.77225 22.9927 7.94728 23.0993 7.11873 23.1016C6.51169 23.1016 5.93748 23.0414 5.35779 22.9594C6.53904 26.6563 9.97888 29.3414 14.075 29.4289C10.8703 31.9391 6.85623 33.4156 2.49763 33.4156C1.7156 33.4156 0.993726 33.3883 0.244507 33.3008C4.37888 35.9531 9.28435 37.4844 14.5672 37.4844C31.7172 37.4844 41.1015 23.2766 41.1015 10.9446C41.1015 10.5399 41.1015 10.1352 41.0742 9.73049C42.8898 8.40159 44.4812 6.75549 45.75 4.90705Z" fill="#9696B2"/>
</svg>
