<svg width="54" height="38" viewBox="0 0 54 38" fill="none" xmlns="http://www.w3.org/2000/svg">
<path d="M52.5814 6.2077C52.2776 5.08077 51.684 4.05304 50.8597 3.22681C50.0353 2.40058 49.0089 1.80466 47.8827 1.49836C43.7067 0.351694 27 0.333028 27 0.333028C27 0.333028 10.296 0.314361 6.11736 1.41036C4.99182 1.73075 3.96755 2.3351 3.14287 3.16539C2.31818 3.99567 1.72079 5.02402 1.40802 6.1517C0.306692 10.3277 0.296024 18.989 0.296024 18.989C0.296024 18.989 0.285358 27.693 1.37869 31.8264C1.99202 34.1117 3.79203 35.917 6.08003 36.533C10.2987 37.6797 26.96 37.6984 26.96 37.6984C26.96 37.6984 43.6667 37.717 47.8427 36.6237C48.9693 36.3179 49.9967 35.7234 50.8231 34.8988C51.6495 34.0743 52.2464 33.0483 52.5547 31.9224C53.6587 27.749 53.6667 19.0904 53.6667 19.0904C53.6667 19.0904 53.72 10.3837 52.5814 6.2077ZM21.656 27.013L21.6694 11.013L35.5547 19.0264L21.656 27.013Z" fill="#9696B2"/>
</svg>
