<svg width="86" height="87" viewBox="0 0 86 87" fill="none" xmlns="http://www.w3.org/2000/svg">
<g clip-path="url(#clip0_4946_26533)">
<path d="M32.8384 63.2117H31.4791V67.9582H26.7325V69.3175H31.4791V74.064H32.8384V69.3175H37.5849V67.9582H32.8384V63.2117Z" fill="#FF9D43"/>
<path d="M63.4345 64.0585C62.0528 59.8914 58.1754 57.1059 53.7854 57.1059H49.1058V52.649L55.6796 46.0752L54.7214 45.117L47.947 51.8914C47.8133 52.0251 47.7464 52.1811 47.7464 52.3816V57.1282H43.6685V49.663H42.3314V57.1282H38.2534V52.3816C38.2534 52.2034 38.1866 52.0251 38.0529 51.8914L31.2785 45.0947L30.3203 46.0529L36.8941 52.6268V57.0836H32.2144C27.8244 57.0836 23.947 59.8691 22.5654 64.0362L16.8384 81.195C16.0807 83.4903 16.4373 85.9415 17.8634 87.9025C19.2896 89.8635 21.4735 91 23.9024 91C26.7325 91 29.2952 89.4178 30.5654 86.8775L31.8356 84.3371C33.9749 80.0808 38.2534 77.429 42.9999 77.429C47.7464 77.429 52.0473 80.0808 54.1643 84.3371L55.4345 86.8775C56.7047 89.4178 59.2451 91 62.0974 91C64.5264 91 66.7102 89.8635 68.1364 87.9025C69.5626 85.9415 69.9191 83.4903 69.1615 81.195L63.4345 64.0585ZM67.0445 87.1226C65.8857 88.727 64.0807 89.6407 62.0974 89.6407C59.7799 89.6407 57.6852 88.3482 56.6601 86.2758L55.3899 83.7354C53.0278 79.0112 48.2813 76.0919 42.9999 76.0919C37.7186 76.0919 32.9721 79.0334 30.61 83.7354L29.3398 86.2758C28.2924 88.3482 26.22 89.6407 23.9024 89.6407C21.9192 89.6407 20.1141 88.727 18.9554 87.1226C17.7966 85.5181 17.4846 83.5126 18.1086 81.6407L23.8356 64.4819C25.0389 60.8719 28.4038 58.4652 32.1921 58.4652H36.8718V63.2117H38.2311V58.4652H42.3314V69.9861H43.6907V58.4652H47.7687V63.2117H49.1281V58.4652H53.8077C57.6183 58.4652 60.9609 60.8942 62.1643 64.4819L67.8913 81.6407C68.493 83.5348 68.2033 85.5181 67.0445 87.1226Z" fill="#6C6D94"/>
<path d="M55.2117 63.9025H52.493V65.2618H55.2117V63.9025Z" fill="#FF9D43"/>
<path d="M51.1559 67.9583H48.4373V69.3176H51.1559V67.9583Z" fill="#FF9D43"/>
<path d="M59.2897 67.9583H56.571V69.3176H59.2897V67.9583Z" fill="#FF9D43"/>
<path d="M55.2117 72.0362H52.493V73.3955H55.2117V72.0362Z" fill="#FF9D43"/>
<path d="M26.2869 54.7883L27.1783 53.7855C22.1421 49.2841 19.2674 42.844 19.2674 36.0919C19.2674 23.0111 29.9192 12.3593 43 12.3593C56.0808 12.3593 66.7326 23.0111 66.7326 36.0919C66.7326 42.844 63.8579 49.2841 58.8217 53.7855L59.7354 54.7883C61.2284 53.4512 62.5432 51.9582 63.6574 50.3315H68.7827C67.2006 52.4485 65.2396 54.3203 62.9666 55.8356L63.7242 56.9721C70.6992 52.2925 74.8663 44.493 74.8663 36.1142C74.8663 22.2535 63.6128 11 49.7967 11H41.663V11.0446C28.4485 11.7354 17.9081 22.6992 17.9081 36.0919C17.9081 43.2228 20.961 50.0418 26.2869 54.7883ZM72.3259 28.6267H66.9777C66.376 26.7103 65.5515 24.883 64.5487 23.2117H69.7409C70.7883 24.883 71.6797 26.7103 72.3259 28.6267ZM68.0919 36.7604H73.507C73.4624 38.61 73.195 40.4373 72.727 42.1755H67.3343C67.7799 40.4373 68.0251 38.61 68.0919 36.7604ZM68.0919 35.4011C68.0474 33.5292 67.7799 31.7242 67.3565 29.9861H72.727C73.195 31.7242 73.4624 33.5515 73.507 35.4011H68.0919ZM64.5265 48.9721C65.5515 47.2563 66.3538 45.4513 66.9554 43.5571H72.3259C71.7019 45.4735 70.8106 47.3008 69.7187 48.9721H64.5265ZM68.7604 21.8524H63.6574C62.6323 20.3816 61.4513 19 60.1588 17.7744H64.883C66.3315 18.9777 67.624 20.337 68.7604 21.8524ZM63.0557 16.415H58.5543C56.3928 14.6992 53.9192 13.3175 51.2674 12.4039C55.6351 12.6713 59.6462 14.1198 63.0557 16.415Z" fill="#6C6D94"/>
<path d="M42.4428 45.9638C42.5765 46.142 42.7771 46.2535 42.9999 46.2535C43.2227 46.2535 43.4233 46.142 43.557 45.9638L53.05 32.3927C53.206 32.1699 53.206 31.8579 53.05 31.6128L43.557 18.0418C43.4233 17.8635 43.2227 17.7521 42.9999 17.7521C42.7771 17.7521 42.5765 17.8635 42.4428 18.0418L32.9498 31.6351C32.7938 31.8579 32.7938 32.1699 32.9498 32.415L42.4428 45.9638ZM42.9999 44.4039L35.4233 33.5961L42.7325 36.7381C42.8216 36.7827 42.9108 36.7827 42.9999 36.7827C43.089 36.7827 43.1782 36.7604 43.2673 36.7381L50.5765 33.5961L42.9999 44.4039ZM42.9999 19.6462L51.4679 31.7242L42.9999 35.3565L34.5319 31.7242L42.9999 19.6462Z" fill="#FF9D43"/>
<path d="M59.869 46.2312C61.6963 43.1783 62.6768 39.6797 62.6768 36.092C62.6768 31.5683 61.1169 27.1783 58.2645 23.6797C55.4567 20.248 51.5347 17.819 47.2339 16.8831L46.9442 18.1978C50.9554 19.0669 54.61 21.3176 57.2172 24.5265C59.869 27.78 61.3175 31.8803 61.3175 36.092C61.3175 39.4346 60.4038 42.6881 58.7102 45.5182L59.869 46.2312Z" fill="#6C6D94"/>
<path d="M39.078 18.1978L38.7884 16.8831C34.4652 17.819 30.5432 20.248 27.7577 23.6797C24.9053 27.1783 23.3455 31.5906 23.3455 36.092C23.3455 40.1477 24.5711 44.0251 26.8663 47.3232L27.9806 46.5432C25.8413 43.468 24.7048 39.858 24.7048 36.092C24.7048 31.8803 26.1533 27.78 28.8051 24.5265C31.4123 21.3176 35.0669 19.0892 39.078 18.1978Z" fill="#6C6D94"/>
<path d="M16.9721 18.8217L15.8133 18.1086C15.2562 18.9999 14.7659 19.9359 14.298 20.8718L15.5236 21.4512C15.947 20.5598 16.4372 19.6685 16.9721 18.8217Z" fill="#FF9D43"/>
<path d="M12.493 34.7326C12.493 31.078 13.1392 27.5125 14.3871 24.1253L13.117 23.6573C11.8022 27.2005 11.1337 30.922 11.1337 34.7326C11.1337 40.6156 12.7604 46.3649 15.8133 51.3565L16.9721 50.6434C14.0306 45.8746 12.493 40.3704 12.493 34.7326Z" fill="#FF9D43"/>
</g>
<rect x="0.5" y="1" width="85" height="85" rx="42.5" stroke="#6C6D94"/>
<defs>
<clipPath id="clip0_4946_26533">
<rect x="1" y="1.5" width="84" height="84" rx="42" fill="white"/>
</clipPath>
</defs>
</svg>
