<svg width="86" height="87" viewBox="0 0 86 87" fill="none" xmlns="http://www.w3.org/2000/svg">
<path d="M74.5633 37.6652C74.5452 37.6652 74.5451 37.647 74.527 37.647L70.3064 35.464L72.3075 34.4634C72.544 34.3542 72.6532 34.0814 72.5986 33.8267L71.1978 28.4782C71.1614 28.3144 71.0341 28.1689 70.8703 28.1143L62.6657 24.767C62.5019 24.6942 62.32 24.7124 62.1745 24.8034L57.4263 27.6595C57.208 27.7869 57.0989 28.0598 57.1898 28.3144L57.3536 28.7692L42.436 21.0558C42.2723 20.9648 42.0903 20.9648 41.9266 21.0558L33.9221 25.1854C33.3035 24.4759 32.7759 23.6754 32.3575 22.8386L31.5935 21.3105C31.5025 21.1285 31.3024 21.0012 31.1023 21.0012C30.884 21.0012 30.702 21.1285 30.6111 21.3105L29.847 22.8386C28.9374 24.6396 27.573 26.186 25.8993 27.3139L25.2626 27.7323C25.117 27.8414 25.0079 28.0052 25.0079 28.1871C25.0079 28.369 25.0989 28.5509 25.2626 28.6419L25.8993 29.0603C25.9721 29.1149 26.0448 29.1695 26.1358 29.224C26.1358 29.224 9.79925 37.6652 9.79925 37.6834C9.63552 37.7926 9.52637 37.9563 9.52637 38.1564V44.6328C9.52637 48.8716 11.8732 52.7101 15.6389 54.6567C16.6941 55.2025 17.822 55.4753 18.9499 55.4753C20.2416 55.4753 21.5332 55.1297 22.6793 54.4202C23.6435 53.8198 24.4439 53.0376 25.0261 52.1098V68.4282L22.2063 68.1007C22.0062 68.0825 21.8243 68.1553 21.6969 68.319L16.2757 75.323C16.1483 75.4685 16.1301 75.6868 16.2029 75.8688L18.5497 81.8904C18.6224 82.0723 18.8044 82.2178 19.0045 82.236L25.4081 83.0001C25.4263 83.0001 25.4445 83.0001 25.4809 83.0001C25.6446 83.0001 25.8083 82.9273 25.9175 82.7818L31.3388 75.7778C31.4479 75.6504 31.4843 75.4685 31.4297 75.3048L40.9078 80.1985C41.3081 80.3986 41.7447 80.5078 42.1813 80.5078C42.6179 80.5078 43.0545 80.3986 43.4547 80.1985L73.3445 64.7351C74.2723 64.2621 74.8362 63.3162 74.8362 62.2792V38.1382C74.8362 37.9563 74.7271 37.7744 74.5633 37.6652ZM73.0716 38.1382L64.0847 42.7954C64.4849 42.0677 64.7214 41.2491 64.7214 40.3576C64.7214 39.6845 64.594 39.0478 64.3393 38.4657L69.0693 36.0825L73.0716 38.1382ZM64.0119 37.3923L68.1051 32.9534L70.7248 34.0268L64.0119 37.3923ZM54.0608 57.7857C54.1517 57.8403 54.2427 57.8585 54.3518 57.8585C54.4428 57.8585 54.5338 57.8403 54.6065 57.8039L63.4661 53.2195C63.648 53.1285 63.7572 52.9284 63.7572 52.7283V49.672L69.2876 46.8159V59.9688L47.1478 71.4299V58.2769L53.7879 54.8386V57.3309C53.7879 57.4947 53.897 57.6766 54.0608 57.7857ZM48.2575 44.7783C48.2575 42.6499 50.0039 40.9034 52.1324 40.9034C54.2609 40.9034 56.0073 42.6499 56.0073 44.7783C56.0073 45.8881 55.5343 46.8704 54.8067 47.5799L52.8965 48.5805C52.66 48.6351 52.4053 48.6533 52.1506 48.6533C50.0039 48.6533 48.2575 46.925 48.2575 44.7783ZM50.8953 49.6175L48.5485 50.8363C48.9306 50.2542 49.1853 49.5993 49.2944 48.8898C49.7856 49.2172 50.3132 49.4719 50.8953 49.6175ZM35.523 40.9034C35.341 40.9034 35.1773 40.9216 35.0136 40.9216C35.2683 39.0296 36.8874 37.5743 38.8521 37.5743C39.9073 37.5743 40.9078 38.0109 41.6355 38.7567C41.6173 38.9205 41.6173 39.066 41.6173 39.2297C41.6173 40.8306 42.3814 42.2678 43.5639 43.1774C42.3086 43.3957 41.1989 44.0689 40.4348 45.0512C40.0528 42.7044 37.9971 40.9034 35.523 40.9034ZM39.3979 45.8881C39.3979 48.0166 37.6514 49.763 35.523 49.763C33.3945 49.763 31.648 48.0166 31.648 45.8881C31.648 43.7596 33.3945 42.0131 35.523 42.0131C37.6696 42.0131 39.3979 43.7596 39.3979 45.8881ZM44.3825 44.2326C45.4559 44.2326 46.4565 44.6692 47.2023 45.4515C47.3297 46.3793 47.6935 47.2161 48.2575 47.9074C48.2575 47.9802 48.2575 48.0347 48.2575 48.1075C48.2575 50.236 46.511 51.9824 44.3825 51.9824C42.2541 51.9824 40.5076 50.236 40.5076 48.1075C40.5076 45.979 42.2541 44.2326 44.3825 44.2326ZM47.4752 43.0319C47.1841 43.1047 46.8931 43.1229 46.602 43.1229C44.4735 43.1229 42.7271 41.3764 42.7271 39.2479C42.7271 37.1194 44.4735 35.373 46.602 35.373C48.7305 35.373 50.4769 37.1194 50.4769 39.2479C50.4769 39.539 50.4405 39.8301 50.386 40.1212C49.0397 40.6305 47.9846 41.6857 47.4752 43.0319ZM57.1171 44.5782C57.7538 44.9785 58.4633 45.2332 59.2273 45.3059L56.7896 46.5612C57.0079 46.0154 57.1171 45.4151 57.1171 44.7783C57.1171 44.7238 57.1171 44.651 57.1171 44.5782ZM62.6475 44.7783V52.3827L54.8976 56.3849V48.7806L62.6475 44.7783ZM59.7549 44.2326C58.536 44.2326 57.3899 43.6504 56.6623 42.6862C56.5349 42.4134 56.3712 42.1405 56.2075 41.904C56.0437 41.5038 55.9346 41.1035 55.8982 40.6669C57.7174 40.0666 59.0818 38.4657 59.3183 36.5009C59.4638 36.4827 59.6094 36.4827 59.7731 36.4827C61.9016 36.4827 63.648 38.2292 63.648 40.3576C63.6299 42.4861 61.8834 44.2326 59.7549 44.2326ZM54.3518 39.8119C53.2785 39.8119 52.2779 39.3753 51.5321 38.593C51.4047 37.6652 51.0409 36.8284 50.4769 36.1371C50.4769 36.0643 50.4769 36.0097 50.4769 35.937C50.4769 33.8085 52.2234 32.062 54.3518 32.062C56.4803 32.062 58.2268 33.8085 58.2268 35.937C58.2268 38.0654 56.4803 39.8119 54.3518 39.8119ZM63.1387 36.7192C62.8476 36.4463 62.5383 36.228 62.1927 36.0279L62.3382 30.6248L67.0136 32.535L63.1387 36.7192ZM70.1972 29.0239L71.2524 33.0444L68.4326 31.8983L67.3774 27.8778L70.1972 29.0239ZM67.1409 31.3707L63.0477 29.697L66.2131 27.8051L67.1409 31.3707ZM62.5019 25.8949L65.3217 27.041L61.7561 29.1695L58.9363 28.0234L62.5019 25.8949ZM61.2467 30.17L61.1011 35.5731C61.0102 35.5549 60.9374 35.5185 60.8465 35.5003L58.627 29.0967L61.2467 30.17ZM57.8084 30.0973L59.6276 35.373C59.5184 35.373 59.4093 35.373 59.3001 35.3912C59.0818 33.3719 57.6628 31.7164 55.7708 31.1524L57.8084 30.0973ZM42.7271 22.4384L56.4621 29.5515L53.6787 30.9887C51.4957 31.2798 49.7674 32.9898 49.4218 35.1547C48.6213 34.5907 47.6389 34.2633 46.602 34.2633C46.0744 34.2633 45.5468 34.3542 45.0738 34.4998C43.5639 32.6806 42.7271 30.3883 42.7271 28.0052V22.4384ZM30.8294 23.3116L31.1023 22.7658L31.3752 23.3116C32.3575 25.2764 33.8311 26.95 35.6321 28.1689C33.8129 29.3878 32.3393 31.0796 31.3752 33.0262L31.1023 33.572L30.8294 33.0262C29.847 31.0615 28.3734 29.3878 26.5724 28.1689C28.3734 26.95 29.847 25.2764 30.8294 23.3116ZM27.0818 29.9699C28.2279 30.9705 29.1557 32.1712 29.847 33.5356L30.6111 35.0637C30.702 35.2457 30.9022 35.373 31.1023 35.373C31.3206 35.373 31.5025 35.2457 31.5935 35.0637L32.3575 33.5356C33.2671 31.7346 34.6315 30.1882 36.3052 29.0603L36.942 28.6419C37.0875 28.5327 37.1966 28.369 37.1966 28.1871C37.1966 28.0052 37.1057 27.8233 36.942 27.7323L36.3052 27.3139C35.7413 26.9318 35.1955 26.4952 34.7043 26.0222L41.5991 22.4566V28.0234C41.5991 30.5521 42.4542 33.008 44.0005 34.991C43.0363 35.5731 42.2904 36.4827 41.8902 37.5561C41.017 36.8829 39.9437 36.5009 38.8157 36.5009C36.1597 36.5009 33.9766 38.593 33.8493 41.2127C33.3399 41.3946 32.8669 41.6493 32.4485 41.9768L25.5537 45.5424L11.2728 38.1382L27.0818 29.9699ZM31.2842 48.4895L26.7725 46.1609L30.9203 44.0143C30.6838 44.5964 30.5565 45.2332 30.5565 45.8881C30.5383 46.8523 30.8112 47.7437 31.2842 48.4895ZM22.079 53.4742C20.2415 54.5839 18.0221 54.6749 16.1119 53.6743C12.71 51.9097 10.5997 48.4532 10.5997 44.6328V39.066L24.9897 46.5066V48.2712C25.0079 50.3997 23.9164 52.3463 22.079 53.4742ZM27.5002 69.8471L24.0619 74.286L22.8612 69.2832L27.5002 69.8471ZM21.8607 69.9017L23.0977 74.9955L17.8584 75.0865L21.8607 69.9017ZM17.5127 76.1962L22.6611 76.1234L19.2228 80.5623L17.5127 76.1962ZM20.0778 81.2354L23.5161 76.7966L24.7168 81.7994L20.0778 81.2354ZM25.7174 81.1809L24.4803 76.0871L29.7197 75.9961L25.7174 81.1809ZM24.9351 74.9591L28.3734 70.5203L30.0653 74.8864L24.9351 74.9591ZM41.6173 79.2889C41.5446 79.2707 41.4718 79.2343 41.4172 79.1979L30.8294 73.7403L29.0647 69.2104C28.992 69.0285 28.8101 68.883 28.6099 68.8648L26.1176 68.5737V47.0706L41.6173 55.0933V79.2889ZM35.8504 50.8727C37.324 50.7818 38.6156 50.0359 39.4707 48.9444C39.8527 51.2366 41.7993 53.0012 44.1824 53.0922L42.1631 54.1291L35.8504 50.8727ZM73.7265 62.261C73.7265 62.8795 73.3808 63.4435 72.8351 63.7346L42.9454 79.1979C42.8726 79.2343 42.7998 79.2525 42.7453 79.2889V55.0933L53.8243 49.3628V53.5834L46.3655 57.4401C46.1836 57.5311 46.0744 57.7312 46.0744 57.9313V72.3213C46.0744 72.5214 46.1836 72.6851 46.3473 72.7943C46.4383 72.8489 46.5292 72.867 46.6384 72.867C46.7293 72.867 46.8203 72.8489 46.8931 72.8125L70.1426 60.7874C70.3246 60.6965 70.4337 60.4964 70.4337 60.2963V45.9063C70.4337 45.7061 70.3246 45.5424 70.1608 45.4333C69.9971 45.3241 69.797 45.3241 69.6151 45.4151L63.7754 48.435V44.2144L73.7447 39.066V62.261H73.7265Z" fill="#9696B2"/>
<path d="M59.6346 49.5235L57.4209 50.6687L57.9308 51.6544L60.1445 50.5091L59.6346 49.5235Z" fill="#FF9D43"/>
<path d="M29.7377 60.8245L37.4876 64.8267C37.5604 64.8631 37.6513 64.8813 37.7423 64.8813C37.8333 64.8813 37.9424 64.8631 38.0334 64.8086C38.1971 64.6994 38.3063 64.5357 38.3063 64.3356V58.7506H37.1965V63.426L30.5564 59.9876V54.7483H29.4467V60.3151C29.4285 60.5334 29.5558 60.7153 29.7377 60.8245Z" fill="#FF9D43"/>
<path d="M74.0175 70.8665L71.9618 71.9398C71.4524 71.3395 70.6884 70.9574 69.8515 70.9574C68.3234 70.9574 67.0863 72.1945 67.0863 73.7226C67.0863 73.9591 67.1227 74.1956 67.1773 74.4139L58.5542 78.871L59.0636 79.8534L62.3564 78.1615L64.0846 81.5816L65.067 81.0904L63.3387 77.6703L67.6685 75.4327C68.1779 76.0876 68.9601 76.506 69.8515 76.506C71.3797 76.506 72.6167 75.269 72.6167 73.7408C72.6167 73.4679 72.5804 73.1951 72.4894 72.9404L74.5269 71.8852L74.0175 70.8665ZM69.8515 75.3781C68.9419 75.3781 68.196 74.6322 68.196 73.7226C68.196 72.813 68.9419 72.0671 69.8515 72.0671C70.7611 72.0671 71.507 72.813 71.507 73.7226C71.507 74.6322 70.7611 75.3781 69.8515 75.3781Z" fill="#9696B2"/>
<path d="M55.9043 18.9799L55.0165 19.6458L58.3347 24.0701L59.2225 23.4043L55.9043 18.9799Z" fill="#FF9D43"/>
<path d="M62.6479 16.9999L61.5597 17.2175L62.6656 22.7477L63.7538 22.5301L62.6479 16.9999Z" fill="#FF9D43"/>
<path d="M70.5584 17.8221L66.1339 22.2478L66.9187 23.0324L71.3432 18.6066L70.5584 17.8221Z" fill="#FF9D43"/>
<path d="M75.2738 23.2078L69.7437 24.3137L69.9613 25.4019L75.4914 24.296L75.2738 23.2078Z" fill="#FF9D43"/>
<path d="M18.8223 65.4453L19.2225 65.1725C19.3681 65.0633 19.4772 64.8996 19.4772 64.7177C19.4772 64.5357 19.3863 64.3538 19.2225 64.2629L18.8223 63.99C17.0395 62.8075 15.6933 61.0428 15.0202 59.0053C14.9474 58.787 14.7291 58.6233 14.4926 58.6233C14.2561 58.6233 14.0378 58.7688 13.965 59.0053C13.2919 61.0247 11.9457 62.8075 10.1629 63.99L9.76262 64.2629C9.61709 64.372 9.50793 64.5357 9.50793 64.7177C9.50793 64.8996 9.5989 65.0815 9.76262 65.1725L10.1629 65.4453C11.9457 66.6278 13.2919 68.3925 13.965 70.43C14.0378 70.6483 14.2561 70.812 14.4926 70.812C14.7291 70.812 14.9474 70.6665 15.0202 70.43C15.6933 68.4107 17.0395 66.6278 18.8223 65.4453ZM14.4926 68.7927C13.7103 67.1736 12.5278 65.7728 11.0543 64.7177C12.5278 63.6625 13.7103 62.2617 14.4926 60.6426C15.2748 62.2617 16.4573 63.6625 17.9309 64.7177C16.4573 65.7546 15.2748 67.1736 14.4926 68.7927Z" fill="#FF9D43"/>
<rect x="0.5" y="1" width="85" height="85" rx="42.5" stroke="#6C6D94"/>
</svg>
