<svg width="80" height="80" viewBox="0 0 80 80" fill="none" xmlns="http://www.w3.org/2000/svg">
<g clip-path="url(#clip0_4877_6836)">
<path d="M47.7822 39.9903C47.7919 44.297 44.3197 47.7798 40.0063 47.7915C35.7015 47.8031 32.2168 44.3271 32.208 40.0136C32.1993 35.7031 35.6666 32.226 39.983 32.2144C44.2896 32.2027 47.7734 35.6758 47.7822 39.9903ZM39.9936 45.0509C42.7887 45.0509 45.0416 42.8047 45.0435 40.0146C45.0464 37.2137 42.8071 34.9579 40.0199 34.9531C37.1928 34.9482 34.9447 37.1895 34.9467 40.0126C34.9496 42.8067 37.1977 45.0509 39.9936 45.0509Z" fill="#9696B2"/>
<path d="M39.9713 61.1642C41.4742 59.5291 42.9043 57.9728 44.3343 56.4174C44.5859 56.1444 44.8308 55.8646 45.0911 55.6004C45.6692 55.0126 46.4532 54.9815 47.038 55.512C47.5801 56.0036 47.5947 56.8128 47.0468 57.42C45.9849 58.5936 44.9104 59.7545 43.8408 60.9203C43.1753 61.646 42.5157 62.3776 41.8434 63.0965C40.7145 64.3041 39.1523 64.3031 38.0283 63.0819C36.301 61.206 34.5843 59.3193 32.8648 57.4346C32.2916 56.806 32.2994 55.9861 32.8793 55.4469C33.4525 54.9135 34.2909 54.9572 34.8622 55.5722C36.4875 57.3229 38.106 59.0813 39.7255 60.8387C39.8003 60.9213 39.8606 61.0175 39.9713 61.1642Z" fill="white"/>
<path d="M40.0005 18.8679C38.9212 20.0405 37.8856 21.1665 36.849 22.2924C36.2263 22.9696 35.6094 23.6535 34.9779 24.3219C34.3804 24.9543 33.541 24.9864 32.9047 24.421C32.3917 23.9654 32.4267 23.1318 32.9921 22.5139C34.6592 20.6914 36.3254 18.8679 37.9993 17.0512C39.2914 15.6483 40.7505 15.6532 42.0349 17.0463C43.7097 18.862 45.3885 20.6739 47.0653 22.4877C47.6978 23.1716 47.7123 23.976 47.1003 24.5405C46.5077 25.0865 45.6683 24.999 45.0494 24.3297C43.3853 22.5275 41.7191 20.7264 40.0005 18.8679Z" fill="#9696B2"/>
<path d="M61.12 39.9961C59.9309 38.9022 58.7796 37.8442 57.6294 36.7853C56.9872 36.1946 56.3392 35.6098 55.7048 35.0113C55.0889 34.4304 55.0461 33.6036 55.5853 33.0304C56.1012 32.4815 56.9454 32.4553 57.541 32.9984C59.4266 34.7189 61.3123 36.4404 63.1815 38.1794C64.257 39.18 64.2754 40.7908 63.2048 41.7992C61.3114 43.5829 59.3936 45.3413 57.4768 47.0988C56.8862 47.6409 56.039 47.5971 55.5241 47.0366C55.0024 46.4692 55.0286 45.6444 55.6261 45.0868C57.3039 43.5217 58.9953 41.9721 60.6818 40.4158C60.811 40.2963 60.9373 40.1719 61.12 39.9961Z" fill="#9696B2"/>
<path d="M18.8762 40.0136C20.0595 41.1027 21.2097 42.1606 22.36 43.2186C23.0012 43.8093 23.6492 44.3931 24.2836 44.9906C24.8985 45.5706 24.9442 46.3983 24.4089 46.9705C23.8843 47.5311 23.0352 47.5418 22.4173 46.9773C20.5588 45.2782 18.7003 43.5771 16.8525 41.8663C15.7275 40.8248 15.7159 39.2296 16.8331 38.1833C18.7071 36.4288 20.5957 34.6898 22.4824 32.9498C23.1061 32.3747 23.927 32.3834 24.4711 32.9527C25.0345 33.5424 24.9928 34.3546 24.3351 34.9647C22.6544 36.524 20.962 38.0706 19.2755 39.6231C19.1579 39.7328 19.0452 39.8475 18.8762 40.0136Z" fill="#9696B2"/>
</g>
<rect x="0.252441" y="0.25" width="79.4951" height="79.5" rx="39.7476" stroke="#9696B2" stroke-width="0.5"/>
<defs>
<clipPath id="clip0_4877_6836">
<rect width="47.9951" height="48" fill="white" transform="translate(16.0024 16)"/>
</clipPath>
</defs>
</svg>
