<svg width="25" height="20" viewBox="0 0 25 20" fill="none" xmlns="http://www.w3.org/2000/svg">
<g clip-path="url(#clip0_5024_7273)">
<path d="M18.1325 5.72964C18.1082 5.94329 17.9771 6.07439 17.7441 6.13266C16.7098 6.38514 15.6853 6.68133 14.6414 6.88526C14.0733 6.99694 13.8159 7.23486 13.7091 7.81267C13.51 8.85662 13.2138 9.88114 12.9565 10.9154C12.8837 11.197 12.7574 11.3184 12.5195 11.3184C12.2767 11.3232 12.1456 11.2018 12.0679 10.9057C11.7669 9.70148 11.4658 8.49731 11.1745 7.28828C11.1357 7.1329 11.0677 7.06492 10.9123 7.02608C9.713 6.72989 8.51853 6.42399 7.32407 6.12294C7.0473 6.05497 6.90649 5.9093 6.90649 5.69566C6.90163 5.4723 7.0473 5.32178 7.33863 5.24895C8.52824 4.95276 9.71785 4.64686 10.9075 4.35552C11.0677 4.31668 11.1454 4.2487 11.1842 4.07876C11.4804 2.84059 11.7912 1.60243 12.0971 0.364265C12.1505 0.145765 12.2767 0.00495401 12.5146 -0.00475709C12.738 -0.00961264 12.8885 0.126343 12.9468 0.373976C13.2575 1.62671 13.5732 2.87944 13.8742 4.13217C13.9179 4.31182 14.0296 4.33125 14.1607 4.36524C15.3406 4.66142 16.5253 4.95761 17.7052 5.2538C17.9917 5.33149 18.1374 5.48201 18.1325 5.72964ZM12.4855 9.02171C12.5049 9.02171 12.5244 9.02171 12.5438 9.01685C12.738 8.25453 12.9419 7.48735 13.1264 6.72018C13.1799 6.49682 13.311 6.37543 13.5295 6.32202C13.9373 6.22491 14.3452 6.12294 14.7482 6.01612C15.1221 5.92387 15.4911 5.82676 15.865 5.72964C15.1075 5.50143 14.3549 5.2975 13.5974 5.1227C13.3158 5.05958 13.1701 4.91391 13.1022 4.63715C12.9468 3.96223 12.772 3.29216 12.602 2.61724C12.5826 2.52984 12.5535 2.44729 12.5292 2.35989C12.2864 3.13678 12.0874 3.8991 11.9028 4.66628C11.8446 4.90906 11.7086 5.04016 11.4707 5.09357C11.1308 5.17126 10.7958 5.25866 10.4607 5.3412C10.0238 5.45288 9.59161 5.56456 9.15461 5.67138C9.7567 5.86074 10.3588 6.00641 10.9609 6.16664C11.9223 6.41913 11.7815 6.24919 12.0339 7.24458C12.1796 7.84181 12.335 8.43418 12.4855 9.02171Z" fill="white"/>
<path d="M6.28005 8.79834C6.49855 8.79834 6.65879 8.93915 6.72191 9.20621C6.94041 10.1093 7.15405 11.0125 7.37255 11.9107C7.45024 12.2264 7.51336 12.542 7.61047 12.8479C7.63475 12.9304 7.73672 13.0324 7.81926 13.0518C9.02344 13.3674 10.2276 13.6685 11.4318 13.9744C11.7231 14.0472 11.8445 14.1783 11.8445 14.4016C11.8494 14.6347 11.7183 14.7755 11.4221 14.8484C10.2422 15.1445 9.06228 15.4504 7.87753 15.7369C7.69302 15.7806 7.61533 15.868 7.57163 16.0477C7.28515 17.2227 6.98411 18.3978 6.68792 19.5679C6.62965 19.7962 6.53254 19.9807 6.26549 19.9952C6.02757 20.0098 5.87704 19.8933 5.80907 19.6214C5.51773 18.4463 5.2264 17.2713 4.94963 16.0962C4.89622 15.8729 4.81368 15.7661 4.57576 15.7126C3.40557 15.4359 2.24024 15.1348 1.07491 14.8435C0.783574 14.7707 0.637908 14.625 0.633052 14.4065C0.628197 14.1831 0.773863 14.0375 1.0652 13.9646C2.24995 13.6733 3.42985 13.3771 4.6146 13.0906C4.80397 13.0469 4.89137 12.9595 4.93992 12.7702C5.2264 11.5854 5.52744 10.4055 5.82363 9.22563C5.90132 8.93915 6.05184 8.79834 6.28005 8.79834ZM6.25578 11.0513C6.24121 11.0513 6.22664 11.0562 6.20722 11.0562C6.02271 11.7991 5.83334 12.542 5.65854 13.2849C5.59057 13.5713 5.4449 13.7267 5.15842 13.7947C4.40096 13.9744 3.64349 14.1831 2.84233 14.3919C2.94915 14.4259 3.00741 14.4502 3.06568 14.4648C3.77459 14.6444 4.48836 14.8241 5.20212 14.9989C5.44004 15.0571 5.58085 15.1882 5.62941 15.431C5.66825 15.6301 5.72652 15.8243 5.77508 16.0185C5.92074 16.5963 6.07127 17.1742 6.21693 17.752C6.45 16.9751 6.64908 16.203 6.83844 15.431C6.89671 15.1882 7.02781 15.0523 7.26573 14.9989C7.68331 14.9018 8.09603 14.7949 8.50875 14.693C8.87292 14.6007 9.23223 14.5085 9.65951 14.3968C8.9506 14.2171 8.30967 14.0472 7.66874 13.887C6.8433 13.683 6.94041 13.7704 6.73162 12.9401C6.57624 12.3138 6.41601 11.6825 6.25578 11.0513Z" fill="white"/>
<path d="M18.7686 20.0001C18.5355 20.0001 18.3996 19.8787 18.3316 19.5971C18.0305 18.4075 17.7246 17.2227 17.4382 16.0283C17.3945 15.8437 17.3119 15.766 17.1323 15.7224C15.9475 15.4359 14.7676 15.1348 13.5877 14.8386C13.3061 14.7658 13.1459 14.6056 13.1653 14.3871C13.1847 14.1346 13.3449 14.0181 13.5877 13.9598C14.7579 13.6782 15.9184 13.3771 17.0886 13.1004C17.3119 13.0469 17.4187 12.9498 17.4722 12.7216C17.7489 11.5514 18.05 10.391 18.3461 9.22563C18.419 8.93915 18.5695 8.79834 18.7977 8.79834C19.0259 8.79834 19.1813 8.93915 19.2493 9.22563C19.5309 10.3958 19.8174 11.5611 20.0844 12.7313C20.133 12.9498 20.2301 13.0469 20.4486 13.1004C21.6091 13.382 22.7647 13.6782 23.9252 13.9695C24.2505 14.052 24.3767 14.1831 24.3719 14.4211C24.367 14.6493 24.2408 14.7804 23.93 14.8532C22.755 15.1445 21.5848 15.4407 20.4049 15.7224C20.2107 15.7709 20.133 15.8583 20.0893 16.0477C19.8028 17.2324 19.5066 18.4123 19.2153 19.5971C19.1376 19.8787 19.0016 20.0001 18.7686 20.0001ZM15.3648 14.3919C15.4862 14.4308 15.5445 14.4502 15.6076 14.4648C16.302 14.6396 16.9963 14.8241 17.6955 14.9843C17.9917 15.0523 18.1277 15.2077 18.1956 15.4941C18.3461 16.1642 18.5209 16.8246 18.6909 17.4898C18.7103 17.5723 18.7394 17.65 18.788 17.7957C19.0016 16.9557 19.2056 16.1885 19.3901 15.4165C19.4484 15.1834 19.5746 15.0571 19.8028 15.0037C20.2107 14.9066 20.6185 14.8047 21.0216 14.7027C21.3906 14.6104 21.7645 14.5133 22.1335 14.4162C21.3614 14.1831 20.5991 13.9792 19.8319 13.7947C19.5795 13.7316 19.4386 13.6005 19.3901 13.348C19.3512 13.1489 19.293 12.9547 19.2444 12.7605C19.0988 12.1875 18.9531 11.6194 18.7929 10.9833C18.754 11.1096 18.7346 11.1678 18.72 11.231C18.5404 11.9253 18.3559 12.6197 18.1859 13.314C18.1228 13.5713 17.9868 13.717 17.7295 13.7801C16.9575 13.9744 16.1951 14.1783 15.3648 14.3919Z" fill="white"/>
</g>
<defs>
<clipPath id="clip0_5024_7273">
<rect width="23.7242" height="20" fill="white" transform="translate(0.637939)"/>
</clipPath>
</defs>
</svg>
