<svg width="35" height="24" viewBox="0 0 35 24" fill="none" xmlns="http://www.w3.org/2000/svg">
<path d="M15.8418 13.6523C15.4463 13.3796 15.0576 13.0932 14.6553 12.834C13.4824 12.084 12.2754 11.3884 11.1299 10.5906C9.71833 9.61549 8.40909 8.51082 7.39306 7.09929C6.60888 6.02189 6.06336 4.83539 5.96789 3.48523C5.8997 2.49648 6.26111 1.69184 7.05893 1.09177C8.45 0.0484696 9.70469 0.0757456 10.973 1.26907C11.5526 1.8214 12.0095 2.49648 12.5346 3.09655C13.1824 3.83982 13.837 4.56945 14.5189 5.33318C15.0235 4.70583 15.5554 4.29669 16.2441 4.09212C16.3123 4.07167 16.3805 3.94892 16.4077 3.8671C16.8237 2.46921 17.6693 1.76003 19.1149 1.64411C19.3876 1.62365 19.5581 1.52819 19.7422 1.33726C21.1128 -0.108367 22.763 -0.326574 24.536 0.416694C26.8817 1.39863 28.6751 3.04882 29.9093 5.26499C30.714 6.70379 31.2663 8.24488 31.6141 9.86098C31.6754 10.1474 31.7027 10.4406 31.7436 10.7543C32.746 11.1566 33.4552 11.9408 34.1371 12.7386C34.969 13.7205 35.0099 14.8661 34.6826 16.0458C34.2189 17.7028 33.2643 19.0939 32.2278 20.4372C31.4777 21.4123 30.6662 22.3261 29.6707 23.0625C28.8933 23.6421 28.0546 24.1126 27.0453 23.9763C25.8657 23.8126 24.8496 23.3012 24.0655 22.3602C23.9768 22.2511 23.7859 22.1556 23.6495 22.1624C21.8697 22.3124 20.2059 21.8896 18.6376 21.0782C17.6147 20.5531 16.5646 20.1304 15.4054 20.0008C14.4575 19.8917 13.5301 19.9872 12.6096 20.1917C11.9072 20.3486 11.2049 20.4508 10.4889 20.3145C9.12508 20.0622 8.33408 19.2575 8.17724 17.8869C8.11587 17.3414 8.10905 16.7686 8.21815 16.2367C8.45682 15.0775 9.30919 14.4433 10.3593 14.0615C11.8459 13.5228 13.3869 13.4137 14.9485 13.6046C15.2349 13.6387 15.5213 13.6728 15.8077 13.7069C15.8213 13.7001 15.8281 13.6796 15.8418 13.6523ZM15.9509 6.26056C16.3327 6.50604 16.6941 6.73788 17.0624 6.96291C17.4306 7.18794 17.8056 7.39932 18.167 7.63799C18.5762 7.90393 18.6853 8.36762 18.4534 8.76312C18.2352 9.13816 17.7306 9.28136 17.3215 9.06316C17.1033 8.94723 16.8987 8.80403 16.6805 8.68129C14.3075 7.33114 12.2004 5.68094 10.6525 3.38977C10.3593 2.95335 9.90926 2.58513 9.45921 2.30555C8.79095 1.88277 7.99995 2.20327 7.7681 2.96017C7.67264 3.26703 7.67264 3.64207 7.74083 3.95574C7.97949 5.06724 8.57274 6.00825 9.32283 6.84017C10.4821 8.13577 11.8663 9.1518 13.3256 10.0928C14.6485 10.9452 15.9713 11.7976 17.2669 12.6909C17.6829 12.9772 18.0443 13.3591 18.3648 13.7478C18.999 14.5047 18.6785 15.3707 17.717 15.5616C17.4238 15.623 17.1033 15.6162 16.8032 15.5753C16.0259 15.4798 15.2622 15.3366 14.4848 15.248C13.3256 15.1184 12.1732 15.2275 11.0617 15.5957C10.1138 15.9162 9.71833 16.5231 9.80016 17.5119C9.85471 18.2006 10.182 18.6165 10.7753 18.6711C11.1299 18.7052 11.5049 18.6915 11.8595 18.6506C12.6778 18.5483 13.4892 18.3438 14.3075 18.3029C15.9372 18.221 17.4715 18.6302 18.9171 19.3734C20.0013 19.9326 21.1128 20.3827 22.3471 20.4986C23.329 20.594 24.2564 20.4986 25.1088 19.9326C25.9134 19.4007 26.6089 18.7666 27.1613 17.9756C27.4545 17.5596 27.9455 17.4641 28.3205 17.7164C28.716 17.9824 28.8183 18.5006 28.5182 18.9166C28.2114 19.3394 27.9045 19.7689 27.5227 20.1167C26.9431 20.6486 26.3021 21.1191 25.6884 21.6101C26.4248 22.2988 27.3727 22.5511 28.2659 21.9783C28.4978 21.8283 28.7296 21.6919 28.9342 21.5146C30.4753 20.1644 31.7232 18.5688 32.6301 16.7277C32.9369 16.1003 33.1279 15.4389 33.087 14.7297C33.0461 14.0137 32.3573 13.0045 31.7914 12.8136C31.6345 13.5228 31.4913 14.2456 31.3072 14.9548C31.2049 15.3434 30.8503 15.5685 30.4958 15.548C30.1071 15.5207 29.7661 15.248 29.7184 14.8593C29.6911 14.6547 29.7525 14.4365 29.807 14.2319C30.148 12.9091 30.2298 11.5657 29.9775 10.2224C29.657 8.53809 29.0365 6.95609 28.1091 5.51729C27.0794 3.91483 25.6747 2.71469 23.9154 1.9646C23.0903 1.61002 22.2448 1.58274 21.4265 2.10098C21.5083 2.14871 21.5697 2.18281 21.6243 2.2169C22.3675 2.69423 23.1108 3.16474 23.8472 3.65571C24.1405 3.85346 24.2905 4.13985 24.2018 4.50808C24.045 5.14906 23.4177 5.36045 22.8449 4.99223C22.122 4.52172 21.4129 4.02393 20.656 3.62843C20.2605 3.42386 19.7695 3.33522 19.3194 3.32158C18.8148 3.30794 18.3443 3.48523 18.1329 4.04439C18.1739 4.07167 18.2011 4.09894 18.2284 4.11258C19.4081 4.46717 20.4241 5.12179 21.4333 5.79005C21.7402 5.99462 21.8493 6.30147 21.7743 6.65606C21.6925 7.00382 21.4538 7.26295 21.0992 7.2834C20.8605 7.29704 20.6014 7.18794 20.3764 7.07201C19.5104 6.6356 18.6785 6.12418 17.7852 5.74913C17.0215 5.42182 16.3941 5.66049 15.9509 6.26056Z" fill="#6C6D94"/>
<path d="M4.63828 15.0638C5.0406 14.641 5.42928 14.1978 5.85206 13.7955C6.34303 13.3318 7.07948 13.5432 7.24995 14.1841C7.32496 14.4842 7.23631 14.7501 7.02492 14.9615C6.11118 15.8821 5.20426 16.7958 4.2837 17.7027C3.92229 18.0573 3.41769 18.0437 3.06992 17.6686C2.163 16.6867 1.26289 15.698 0.369605 14.6956C0.0218377 14.3069 0.0559326 13.7955 0.417338 13.4818C0.765106 13.1818 1.26289 13.2159 1.60384 13.5773C2.00616 14.0069 2.40166 14.4433 2.86535 14.9547C2.86535 14.7569 2.86535 14.641 2.86535 14.5251C2.86535 11.2247 2.86535 7.92433 2.86535 4.62394C2.86535 4.04433 3.19266 3.68292 3.70408 3.68292C4.12004 3.68292 4.44053 3.95568 4.50872 4.36482C4.536 4.52166 4.536 4.67849 4.536 4.84215C4.536 8.0948 4.536 11.3543 4.536 14.6069C4.536 14.7365 4.536 14.866 4.536 14.9956C4.56327 15.0229 4.60419 15.0433 4.63828 15.0638Z" fill="#6C6D94"/>
</svg>
