<svg width="36" height="36" viewBox="0 0 36 36" fill="none" xmlns="http://www.w3.org/2000/svg">
<path fill-rule="evenodd" clip-rule="evenodd" d="M27.7415 10.1104C27.8631 9.98892 27.9595 9.84471 28.0254 9.68598C28.0913 9.52725 28.1252 9.3571 28.1253 9.18525C28.1254 9.0134 28.0917 8.84321 28.026 8.68439C27.9603 8.52558 27.864 8.38126 27.7426 8.25966C27.6212 8.13807 27.477 8.04159 27.3182 7.97573C27.1595 7.90986 26.9893 7.87591 26.8175 7.8758C26.6456 7.8757 26.4754 7.90944 26.3166 7.97511C26.1578 8.04078 26.0135 8.13708 25.8919 8.25853L18 16.1504L10.1104 8.25853C9.86479 8.01296 9.53173 7.875 9.18444 7.875C8.83716 7.875 8.5041 8.01296 8.25853 8.25853C8.01296 8.5041 7.875 8.83716 7.875 9.18445C7.875 9.53173 8.01296 9.86479 8.25853 10.1104L16.1504 18L8.25853 25.8896C8.13693 26.0112 8.04048 26.1556 7.97468 26.3145C7.90887 26.4733 7.875 26.6436 7.875 26.8156C7.875 26.9875 7.90887 27.1578 7.97468 27.3167C8.04048 27.4755 8.13693 27.6199 8.25853 27.7415C8.5041 27.987 8.83716 28.125 9.18444 28.125C9.3564 28.125 9.52668 28.0911 9.68555 28.0253C9.84442 27.9595 9.98877 27.8631 10.1104 27.7415L18 19.8496L25.8919 27.7415C26.1375 27.9867 26.4704 28.1244 26.8175 28.1242C27.1646 28.124 27.4973 27.9859 27.7426 27.7403C27.9879 27.4948 28.1255 27.1618 28.1253 26.8148C28.1251 26.4677 27.987 26.1349 27.7415 25.8896L19.8496 18L27.7415 10.1104Z" fill="#6C6D94"/>
</svg>
