<svg width="1088" height="317" viewBox="0 0 1088 317" fill="none" xmlns="http://www.w3.org/2000/svg">
<path d="M307.795 11V116.682C307.795 134.086 302.828 149.78 292.894 163.764C302.828 177.747 307.795 193.441 307.795 210.845V316.527H0V11H307.795ZM236.738 116.682V81.5218H71.0061V128.402H224.929C228.071 128.402 230.859 127.296 233.393 125.082C235.623 122.718 236.738 119.901 236.738 116.682ZM236.738 245.955V210.795C236.738 207.676 235.623 204.91 233.393 202.395C231.011 200.031 228.172 198.874 224.929 198.874H71.0568V245.955H236.738Z" fill="url(#paint0_linear_4877_6798)"/>
<path d="M677.98 11H749.037V316.477H677.118L512.299 119.952V316.477H441.242V11H513.161L677.98 207.274V11Z" fill="url(#paint1_linear_4877_6798)"/>
<path d="M780.205 11H1088V81.5218H851.262V128.402H1088V198.924H851.262V246.006H1088V316.527H780.205V11Z" fill="url(#paint2_linear_4877_6798)"/>
<path d="M338.964 316.477V100.696L410.021 65.4853V316.477H338.964Z" fill="url(#paint3_linear_4877_6798)"/>
<g filter="url(#filter0_d_4877_6798)">
<path d="M338.964 81.5218V11L410.021 46.2609L338.964 81.5218Z" fill="url(#paint4_linear_4877_6798)"/>
</g>
<defs>
<filter id="filter0_d_4877_6798" x="318.964" y="0" width="111.057" height="110.522" filterUnits="userSpaceOnUse" color-interpolation-filters="sRGB">
<feFlood flood-opacity="0" result="BackgroundImageFix"/>
<feColorMatrix in="SourceAlpha" type="matrix" values="0 0 0 0 0 0 0 0 0 0 0 0 0 0 0 0 0 0 127 0" result="hardAlpha"/>
<feOffset dy="9"/>
<feGaussianBlur stdDeviation="10"/>
<feComposite in2="hardAlpha" operator="out"/>
<feColorMatrix type="matrix" values="0 0 0 0 1 0 0 0 0 0.6165 0 0 0 0 0.2625 0 0 0 0.26 0"/>
<feBlend mode="normal" in2="BackgroundImageFix" result="effect1_dropShadow_4877_6798"/>
<feBlend mode="normal" in="SourceGraphic" in2="effect1_dropShadow_4877_6798" result="shape"/>
</filter>
<linearGradient id="paint0_linear_4877_6798" x1="153.897" y1="11" x2="153.897" y2="316.527" gradientUnits="userSpaceOnUse">
<stop stop-color="white"/>
<stop offset="0.479166" stop-color="white"/>
<stop offset="0.890641" stop-color="#CBC0E1"/>
<stop offset="1" stop-color="#CBC0E1"/>
</linearGradient>
<linearGradient id="paint1_linear_4877_6798" x1="595.139" y1="11" x2="595.139" y2="316.477" gradientUnits="userSpaceOnUse">
<stop stop-color="white"/>
<stop offset="0.479166" stop-color="white"/>
<stop offset="0.890641" stop-color="#CBC0E1"/>
<stop offset="1" stop-color="#CBC0E1"/>
</linearGradient>
<linearGradient id="paint2_linear_4877_6798" x1="934.103" y1="11" x2="934.103" y2="316.527" gradientUnits="userSpaceOnUse">
<stop stop-color="white"/>
<stop offset="0.479166" stop-color="white"/>
<stop offset="0.890641" stop-color="#CBC0E1"/>
<stop offset="1" stop-color="#CBC0E1"/>
</linearGradient>
<linearGradient id="paint3_linear_4877_6798" x1="374.493" y1="61.3007" x2="374.493" y2="316.477" gradientUnits="userSpaceOnUse">
<stop stop-color="white"/>
<stop offset="0.578128" stop-color="white"/>
<stop offset="0.812513" stop-color="#CEC4E1"/>
<stop offset="0.994812" stop-color="#CEC4E1"/>
</linearGradient>
<linearGradient id="paint4_linear_4877_6798" x1="374.493" y1="11" x2="374.493" y2="81.5218" gradientUnits="userSpaceOnUse">
<stop stop-color="white"/>
<stop offset="0.380203" stop-color="#F5D846"/>
<stop offset="1" stop-color="#F36600"/>
</linearGradient>
</defs>
</svg>
