<svg width="52" height="46" viewBox="0 0 52 46" fill="none" xmlns="http://www.w3.org/2000/svg">
<path d="M51.5999 23.3203C51.5999 20.1203 49.0399 17.5603 45.8399 17.8803C44.5599 17.8803 42.9599 18.5203 41.9999 19.4803C37.5199 16.6003 32.3999 14.6803 26.9599 14.6803L29.5199 2.52027L37.8399 4.44027C37.8399 6.68027 39.7599 8.28027 41.9999 8.28027C44.2399 8.28027 45.8399 6.36027 45.8399 4.12027C45.8399 1.88027 43.9199 0.280273 41.6799 0.280273C40.0799 0.280273 38.7999 1.24027 38.1599 2.52027L29.1999 0.280273H28.5599C28.2399 0.280273 28.2399 0.600273 28.2399 0.920273L25.0399 14.6803C19.5999 14.6803 14.4799 16.2803 9.99995 19.4803C7.75995 17.2403 4.23995 17.2403 1.99995 19.4803C-0.240054 21.7203 -0.240054 25.2403 1.99995 27.4803C2.31995 27.8003 2.95995 28.4403 3.59995 28.4403V30.0403C3.59995 38.6803 13.5199 45.7203 25.9999 45.7203C38.4799 45.7203 48.3999 38.6803 48.3999 30.0403V28.4403C50.3199 27.4803 51.5999 25.5603 51.5999 23.3203ZM13.1999 27.4803C13.1999 25.2403 15.1199 23.6403 17.0399 23.6403C19.2799 23.6403 20.8799 25.5603 20.8799 27.4803C20.8799 29.4003 18.9599 31.3203 17.0399 31.3203C14.7999 31.3203 13.1999 29.7203 13.1999 27.4803ZM35.5999 38.0403C32.7199 39.9603 29.5199 41.2403 25.9999 40.9203C22.4799 40.9203 19.2799 39.9603 16.3999 38.0403C16.0799 37.7203 16.0799 37.0803 16.3999 36.4403C16.7199 36.1203 17.3599 36.1203 17.6799 36.4403C19.9199 38.0403 22.7999 39.0003 25.6799 38.6803C28.5599 39.0003 31.4399 38.0403 33.6799 36.4403C33.9999 36.1203 34.6399 36.1203 35.2799 36.4403C35.9199 36.7603 35.9199 37.4003 35.5999 38.0403ZM34.6399 31.3203C32.3999 31.3203 30.7999 29.4003 30.7999 27.4803C30.7999 25.5603 32.7199 23.6403 34.6399 23.6403C36.8799 23.6403 38.4799 25.5603 38.4799 27.4803C38.7999 29.7203 36.8799 31.3203 34.6399 31.3203Z" fill="#9696B2"/>
</svg>
