<svg width="50" height="32" viewBox="0 0 50 32" fill="none" xmlns="http://www.w3.org/2000/svg">
<g clip-path="url(#clip0_4877_6845)">
<path d="M49.3286 28.5769C49.2802 28.7658 49.2328 28.9539 49.1835 29.1428C48.7517 30.7713 47.4199 31.9233 45.7357 31.9534C42.969 32.0036 40.1994 32.0128 37.4327 31.9543C35.4071 31.9114 33.8672 30.3058 33.8389 28.272C33.8024 25.6148 33.8005 22.9566 33.8398 20.3003C33.8708 18.2684 35.4171 16.6727 37.4464 16.6308C40.183 16.5742 42.9215 16.5787 45.6581 16.6326C47.4911 16.6682 48.9151 17.9945 49.2391 19.801C49.2574 19.9032 49.2985 20.0018 49.3286 20.1013C49.3286 22.9265 49.3286 25.7517 49.3286 28.5769ZM35.2547 24.2939C35.2547 25.5381 35.2547 26.7832 35.2547 28.0274C35.2547 28.0575 35.2547 28.0885 35.2547 28.1187C35.2665 29.6102 36.2506 30.5842 37.7503 30.5851C40.2277 30.5869 42.707 30.544 45.1835 30.6025C46.5089 30.6335 47.8845 29.8366 47.8845 27.9124C47.8854 25.4076 47.8909 22.9037 47.8818 20.3989C47.8763 18.9959 46.864 18.0046 45.4564 18.0036C42.8722 18.0009 40.288 18.0009 37.7038 18.0036C36.267 18.0046 35.2656 18.9931 35.2565 20.4245C35.2483 21.7134 35.2547 23.0032 35.2547 24.2939Z" fill="#9696B2"/>
<path d="M24.9498 15.4496C23.6417 15.4496 22.3336 15.456 21.0255 15.4478C18.9142 15.435 17.2501 13.8312 17.2236 11.7152C17.1908 9.05799 17.1908 6.39985 17.2236 3.7417C17.2492 1.70701 18.7836 0.089486 20.8037 0.0447576C23.5705 -0.0154889 26.3409 -0.0154889 29.1077 0.0447576C31.1378 0.089486 32.6714 1.75722 32.6914 3.84576C32.717 6.44275 32.7143 9.03974 32.6924 11.6367C32.6741 13.8275 31.0228 15.4386 28.8284 15.4478C27.5358 15.4542 26.2432 15.4496 24.9498 15.4496ZM18.6412 7.70792C18.6412 9.01326 18.633 10.3186 18.644 11.6239C18.6549 12.9932 19.6727 13.9946 21.0474 13.9964C23.6472 14 26.2469 14 28.8466 13.9964C30.2505 13.9946 31.2638 12.9987 31.2684 11.5966C31.2775 9.0014 31.2775 6.40532 31.2684 3.81016C31.2629 2.40715 30.2505 1.41673 28.8421 1.41491C26.2579 1.41217 23.6736 1.41217 21.0885 1.41491C19.6526 1.41582 18.6513 2.40532 18.6431 3.83663C18.6348 5.12737 18.6412 6.41719 18.6412 7.70792Z" fill="#9696B2"/>
<path d="M24.9517 16.607C26.2442 16.607 27.5368 16.5951 28.8294 16.6097C31.0247 16.6344 32.6669 18.2382 32.6906 20.4281C32.7189 23.0242 32.718 25.6212 32.6906 28.2172C32.6687 30.2957 31.1288 31.9151 29.0585 31.958C26.3227 32.0146 23.5833 32.0146 20.8476 31.958C18.7965 31.9151 17.2493 30.3076 17.2237 28.2574C17.1899 25.6157 17.1899 22.973 17.2237 20.3322C17.2511 18.2145 18.8759 16.649 21.0283 16.6125C22.3364 16.5897 23.6445 16.6079 24.9517 16.607ZM18.6413 24.282C18.6413 25.5874 18.634 26.8927 18.6431 28.1981C18.6532 29.5709 19.6673 30.5814 21.0338 30.5833C23.6482 30.5878 26.2634 30.5878 28.8777 30.5833C30.2296 30.5814 31.2593 29.5837 31.2657 28.2428C31.2785 25.6166 31.2776 22.9913 31.2666 20.3651C31.2611 18.994 30.2378 18.0045 28.854 18.0027C26.2543 17.9991 23.6545 17.9991 21.0548 18.0027C19.6582 18.0045 18.6514 19.0077 18.6422 20.4117C18.6349 21.7015 18.6413 22.9922 18.6413 24.282Z" fill="white"/>
<path d="M8.39751 31.958C6.96803 31.958 5.53581 32.0055 4.10906 31.9461C2.23047 31.8685 0.685965 30.2182 0.679576 28.3487C0.670447 25.6449 0.670447 22.9411 0.679576 20.2373C0.685965 18.3679 2.22955 16.6837 4.10815 16.6426C6.9516 16.5815 9.79779 16.5815 12.6403 16.6435C14.4815 16.6837 16.0725 18.3487 16.0954 20.1835C16.1291 22.963 16.1255 25.7426 16.0945 28.5221C16.0753 30.2382 14.4997 31.8676 12.7791 31.9388C11.3213 31.9991 9.85895 31.9516 8.39934 31.9516C8.39751 31.9543 8.39751 31.9562 8.39751 31.958ZM8.35005 30.5851C9.56684 30.5851 10.7845 30.544 11.9995 30.5961C13.4956 30.66 14.706 29.7307 14.727 27.8822C14.7544 25.4076 14.7407 22.9329 14.7307 20.4582C14.7252 19.0132 13.6965 18.0046 12.2505 18.0036C9.68094 18.0018 7.11043 18.0018 4.54083 18.0036C3.12777 18.0046 2.07894 18.9694 2.06433 20.366C2.03695 22.9922 2.03421 25.6193 2.06616 28.2455C2.08259 29.6184 3.1369 30.5824 4.51892 30.5851C5.79505 30.5869 7.073 30.5851 8.35005 30.5851Z" fill="#9696B2"/>
<path d="M42.8896 25.0041C42.5464 25.0041 42.2041 25.0041 41.8608 25.0041C40.7655 25.0041 39.671 25.0078 38.5756 25.0023C38.0379 24.9996 37.7349 24.7421 37.7367 24.3149C37.7385 23.8877 38.0334 23.6577 38.5875 23.6568C40.0297 23.655 41.472 23.6559 43.0247 23.6559C42.6468 23.2725 42.331 22.9585 42.0224 22.6372C41.6755 22.2775 41.6427 21.8302 41.9339 21.55C42.2278 21.267 42.6632 21.3108 43.0174 21.6769C43.6838 22.3642 44.3456 23.0562 45.0037 23.7508C45.4099 24.1808 45.4117 24.5176 45.001 24.9329C44.3072 25.6358 43.6062 26.3323 42.9033 27.026C42.5655 27.3592 42.2433 27.3766 41.9476 27.0963C41.6655 26.8279 41.6491 26.3898 41.9457 26.0776C42.2652 25.7426 42.613 25.435 42.9489 25.1155C42.9298 25.079 42.9097 25.0416 42.8896 25.0041Z" fill="#9696B2"/>
<path d="M25.629 6.35416C25.629 6.69738 25.629 7.0406 25.629 7.38383C25.629 8.492 25.6344 9.60017 25.6253 10.7092C25.6216 11.2031 25.3432 11.5226 24.9553 11.5226C24.5664 11.5226 24.2898 11.2031 24.2862 10.7083C24.278 9.403 24.2834 8.09674 24.2825 6.7914C24.2825 6.64535 24.2825 6.4993 24.2825 6.35325C24.2424 6.33225 24.2022 6.31034 24.162 6.28935C23.8763 6.59423 23.597 6.90733 23.3022 7.20309C22.9197 7.58647 22.4761 7.62573 22.1821 7.31902C21.9028 7.02782 21.9457 6.59058 22.3044 6.22819C22.9781 5.54813 23.6536 4.8699 24.3364 4.19898C24.7508 3.79186 25.105 3.79368 25.5203 4.20263C26.2451 4.91737 26.9653 5.63759 27.6819 6.36055C27.9941 6.67547 28.0142 6.99953 27.7595 7.28707C27.4993 7.58191 27.053 7.62025 26.7435 7.32175C26.4003 6.98949 26.0991 6.61431 25.7796 6.2574C25.7294 6.28935 25.6792 6.32221 25.629 6.35416Z" fill="#9696B2"/>
<path d="M24.2834 25.644C24.2834 25.3766 24.2834 25.11 24.2834 24.8425C24.2834 23.6732 24.2798 22.5048 24.2853 21.3355C24.288 20.8051 24.5545 20.4765 24.9562 20.4774C25.3587 20.4774 25.6244 20.8042 25.6262 21.3364C25.6326 22.6271 25.628 23.9179 25.6289 25.2077C25.6289 25.3537 25.6289 25.4998 25.6289 25.6458C25.6737 25.6723 25.7184 25.6979 25.7631 25.7234C26.0552 25.403 26.3373 25.0735 26.6431 24.7659C26.9936 24.4135 27.4318 24.3734 27.6892 24.6436C27.963 24.9311 27.9302 25.3382 27.5796 25.6951C26.8978 26.3889 26.2113 27.0771 25.5148 27.7563C25.115 28.1461 24.7517 28.1452 24.3619 27.7618C23.6463 27.0589 22.9379 26.3496 22.2314 25.6376C21.9192 25.3236 21.8973 25.0005 22.152 24.7111C22.4131 24.4153 22.8549 24.3788 23.168 24.6737C23.5167 25.0014 23.8279 25.3674 24.1556 25.7161C24.1985 25.6933 24.2405 25.6687 24.2834 25.644Z" fill="white"/>
<path d="M7.02924 25.0361C7.33503 25.3227 7.65178 25.5993 7.94571 25.8987C8.31358 26.2748 8.33732 26.6874 8.03335 26.9822C7.72846 27.2789 7.32773 27.2424 6.948 26.8672C6.26703 26.1944 5.5888 25.5189 4.91605 24.8389C4.50071 24.419 4.49615 24.073 4.90418 23.6604C5.59793 22.9585 6.29806 22.262 7.00003 21.5673C7.34051 21.2305 7.65726 21.2059 7.95484 21.4806C8.24238 21.7462 8.26885 22.1881 7.9731 22.4975C7.65178 22.8334 7.29487 23.1356 6.95347 23.4523C6.97447 23.4961 6.99546 23.539 7.01646 23.5829C7.35694 23.5829 7.69743 23.5829 8.03882 23.5829C9.07214 23.5829 10.1064 23.5829 11.1397 23.5829C11.2465 23.5829 11.3533 23.5783 11.4592 23.5847C11.9229 23.6139 12.2588 23.9014 12.2424 24.2492C12.226 24.6098 11.901 24.8964 11.4409 24.901C10.1794 24.9128 8.91787 24.9055 7.65544 24.9055C7.47378 24.9055 7.29304 24.9055 7.11139 24.9055C7.08401 24.9493 7.05662 24.9932 7.02924 25.0361Z" fill="#9696B2"/>
</g>
<defs>
<clipPath id="clip0_4877_6845">
<rect width="48.6572" height="32" fill="white" transform="translate(0.671387)"/>
</clipPath>
</defs>
</svg>
